<?xml version="1.0" encoding="UTF-8"?>
<!DOCTYPE svg PUBLIC "-//W3C//DTD SVG 1.1//EN" "http://www.w3.org/Graphics/SVG/1.1/DTD/svg11.dtd">
<!-- Creator: CorelDRAW 2018 (64 Bit) -->
<svg xmlns="http://www.w3.org/2000/svg" xml:space="preserve" width="127mm" height="127mm" version="1.1" style="shape-rendering:geometricPrecision; text-rendering:geometricPrecision; image-rendering:optimizeQuality; fill-rule:evenodd; clip-rule:evenodd"
viewBox="0 0 12700 12700"
 xmlns:xlink="http://www.w3.org/1999/xlink">
 <defs>
  <style type="text/css">
   <![CDATA[
    .str0 {stroke:#373435;stroke-width:20;stroke-miterlimit:22.9256}
    .fil4 {fill:url(#id0)}
    .fil6 {fill:url(#id1)}
    .fil3 {fill:url(#id2)}
    .fil7 {fill:url(#id3)}
    .fil2 {fill:url(#id4)}
    .fil0 {fill:url(#id5)}
    .fil1 {fill:url(#id6)}
    .fil5 {fill:url(#id7)}
   ]]>
  </style>
  <linearGradient id="id0" gradientUnits="userSpaceOnUse" x1="8144.93" y1="76.2" x2="4792.13" y2="11116.73">
   <stop offset="0" style="stop-opacity:1; stop-color:#FFF200"/>
   <stop offset="1" style="stop-opacity:1; stop-color:#D45B04"/>
  </linearGradient>
  <linearGradient id="id1" gradientUnits="userSpaceOnUse" xlink:href="#id0" x1="8144.93" y1="76.2" x2="4792.13" y2="11116.73">
  </linearGradient>
  <linearGradient id="id2" gradientUnits="userSpaceOnUse" xlink:href="#id0" x1="8144.95" y1="76.2" x2="4792.13" y2="11116.73">
  </linearGradient>
  <linearGradient id="id3" gradientUnits="userSpaceOnUse" xlink:href="#id0" x1="8144.93" y1="76.2" x2="4792.13" y2="11116.73">
  </linearGradient>
  <linearGradient id="id4" gradientUnits="userSpaceOnUse" xlink:href="#id0" x1="8144.97" y1="76.13" x2="4792.1" y2="11116.76">
  </linearGradient>
  <linearGradient id="id5" gradientUnits="userSpaceOnUse" xlink:href="#id0" x1="8144.95" y1="76.2" x2="4792.15" y2="11116.73">
  </linearGradient>
  <linearGradient id="id6" gradientUnits="userSpaceOnUse" xlink:href="#id0" x1="8144.95" y1="76.2" x2="4792.13" y2="11116.76">
  </linearGradient>
  <linearGradient id="id7" gradientUnits="userSpaceOnUse" xlink:href="#id0" x1="8144.93" y1="76.2" x2="4792.13" y2="11116.73">
  </linearGradient>
 </defs>
 <g id="Capa_x0020_1">
  <metadata id="CorelCorpID_0Corel-Layer"/>
  <g id="_2110878307984">
   <path class="fil0" d="M9202.06 3351.4l0 4833.62 1177.82 0c0,-35 -6.13,-42.43 -6.13,-79.74l0 -5404.08c0,-46.92 2.01,-260.78 12.26,-282.17 28.12,2.35 10.54,-3.39 24.59,12.22 19.13,21.17 33.46,48.85 55.33,67.36l148.46 176.64c26.16,32.1 47.78,59 74.14,91.49 25.3,31.18 44.78,58.6 70.15,89.35l40.03 39.73c32.1,30.23 32.82,63 63.1,102.53 15.37,20.05 22.21,27.42 36.96,48.9 15.72,22.88 22.77,21.15 34.11,45.63 23.85,51.46 64.53,102.57 97.23,148.16 66.69,93.03 293.23,504.99 349.69,631.76 17.42,39.11 26.89,78.86 46.99,118.64 19.17,37.91 33.25,71.46 51.18,108.31l90.75 234.35c7.31,23.21 9.04,39.08 17.22,62.52 8.29,23.76 15.51,38.28 24.43,61.46 62.29,162.29 143.06,470.22 176.89,638.94 9.54,47.54 11.78,98.17 23.09,142.55 37.18,145.79 23.21,169.76 44.41,280.67l36.87 353.93c0.6,16.5 -4.74,49.62 -0.99,76.38l8.05 112.89c0.48,16.27 -3.58,12.5 -3.58,36 0,94.56 6.69,249.21 0.35,337.45 -3.64,50.73 -19.61,202.16 -8.53,234.72 8.05,23.65 13.99,4.98 3.07,66.76 -7.91,44.87 -21.07,95.48 -21.92,138.57 -0.76,39 -17.01,95.39 -21.22,137.31l-33.05 218.45c-8.62,39.91 -11.08,101.1 -21.43,144.19 -11.76,48.95 -25.86,76.67 -33.28,132.33 -6.48,48.37 -24.93,157.14 -46.76,198.62 -10.46,19.87 -14.26,41 -21.98,63.89 -14.98,44.36 -22.08,84.3 -36.74,128.89 -29.33,89.28 -70.63,218.91 -107.04,303.94 -9.13,21.32 -13.85,40.15 -22.98,62.89 -62.57,155.54 -127.33,310.98 -203.01,459.51 -11.84,23.25 -17.53,27.63 -27.6,52.1 -8.28,20.1 -16.62,37.77 -28.56,57.36 -51.8,85.01 -94.64,180.03 -147.17,263.82 -53.16,84.86 -116.05,166.41 -163.71,253.41l-32.15 47.59c-13.39,17.84 -22.54,31.5 -35.88,49.98l-41.41 56.76c-8.41,12.61 -3.87,4.57 -8.55,15.98 -6.73,16.38 -1.52,14.24 -12.81,30.14 -5.4,7.58 -10.74,11.04 -17.68,19.13 -56.97,66.57 -107.41,142.69 -165.95,208.21l-153.46 177.8c-14.38,16.31 -28.34,26.47 -42.68,43.23l-32.75 53.12c-11.66,20.88 -32.63,36.96 -51.53,52.75 -36.2,30.26 -74.87,62.52 -101,101.42 -28.19,41.99 -73.24,52.43 -103.48,86.67 -47.1,53.33 -193.44,162.34 -237.92,216.03l-209.32 164.87c-27.91,22.93 -62.24,56 -91.93,73.7 -23.04,13.76 -27.44,19.29 -53.14,32.74 -12.19,6.37 -13.8,7.93 -22.88,13.92l-224.14 150.05c-118.66,79.42 -240.78,150.44 -368.52,214.25l-335.29 167.73c-17.95,8.99 -37.14,20.32 -53.14,26.62l-236.95 94.27c-12.24,3.95 -21.11,6.2 -31.87,11.11 -13.99,6.36 -10.35,7.56 -28.46,14.47 -20.54,7.82 -39.94,11.32 -62.09,17.66 -36.36,10.37 -72.64,18.39 -102.41,38.69 -21.62,14.73 -55.4,16.04 -86.56,23.85 -42.22,10.58 -81.14,28.6 -124.21,41.39 -46.12,13.69 -88.82,22.84 -132.44,33.21 -51.88,12.31 -76.15,28.37 -130.05,35.58 -59.3,7.93 -84.37,14.96 -135.85,29.75l-281.43 49.92c-13.11,1.13 -21.57,-0.81 -28.25,-0.25 -10.7,0.87 -0.7,-1.43 -12.59,2.74 -40.35,14.1 -175.72,25.67 -230.7,32.63 -48.05,6.09 -101.5,22.72 -149.04,22.72 -28.09,0 1.2,-2.83 -16.45,-6.68 -0.95,-0.21 -2.75,-0.69 -3.74,-0.81 -0.96,-0.11 -2.76,-0.23 -3.73,-0.23 -0.11,-0.02 -9.89,1.87 -12.01,2.29 -32.03,6.22 -22.17,-0.7 -56.09,-0.7 -41.8,0 -58,7.72 -93.56,8.95 -21.23,0.71 -64.48,-2.72 -96.68,-2.89 -42.98,-0.23 -58.42,6.37 -97.87,6.43 -84.09,0.12 -183.23,3.88 -264.88,-5.46 -15.58,-1.77 -38.47,-1.5 -54.23,-0.34 -63.42,4.72 -137.97,-2.77 -202.29,-7.59 -47.25,-3.52 -17.42,16.32 -81.01,-4.6l-317.7 -46.46c-133.92,-10.97 -353.93,-55.31 -490.52,-89.63 -39.61,-9.95 -91.86,-14.24 -121.98,-25.25l-218.1 -76.35c-28.74,-9.71 -51.9,-10.31 -79.39,-18.76 -26.6,-8.18 -43.44,-19.94 -68.15,-30.01 -27.35,-11.13 -49.08,-12.47 -75.72,-22.42 -26.64,-9.98 -42.64,-22.15 -69.48,-28.67 -53.79,-13.07 -90.43,-38.3 -141.39,-54.92 -64.76,-21.11 -270.18,-117.87 -338.74,-152l-129.33 -66.97c-21.83,-13.07 -43.53,-22.63 -64.9,-33.26 -64.41,-32.03 -128.29,-66.58 -187.68,-106.77l-153.3 -92.06c-21.7,-13.41 -44.34,-18.05 -63.95,-34.2l-480.91 -353.38c-25.85,-17.74 -33.34,-22.58 -51.89,-46.25 -23.28,-29.71 -142.54,-129.61 -180.22,-163.3l-56.25 -41.87c-11.11,-6.57 -20.95,-12.89 -28.58,-20.51l-171.34 -172.2c-0.76,-1.04 -1.71,-2.58 -2.42,-3.71 -0.72,-1.15 -1.41,-2.83 -2.05,-4.06 -28.58,-53.78 -70.11,-80.15 -106.86,-126.24 -33.95,-42.54 -71.17,-91.19 -113.89,-125.34 -57.64,-46.07 -75.2,-106.36 -109.63,-141.89l-91.08 -105.23c-55,-72.77 -34.52,-80.01 12.96,-139.51 9.79,-12.29 8.06,-13.25 18.92,-24.04 47.82,-47.59 15.99,-5.35 83.12,-88.63 26.99,-33.51 50.17,-61.99 76.9,-94.86l155.65 -181.73c14.29,-16.25 23.12,-31.97 37.31,-48.58l73.15 -98.61c24.4,-29.8 49.02,-68.42 76.49,-95.27l121.86 -129.63c26.34,-33.74 55.63,-61.23 75.24,-96.54 20.93,-37.63 58.84,-94.74 96.35,-118.34 36.23,-22.79 72.74,-72.57 99.88,-109.09 17.4,-23.42 26.62,-39.85 -16.41,-42.11 -114.02,-5.92 -223.01,6.85 -338.28,6.82 -141.86,0 -689.03,-6.93 -767.13,-0.29 -52.06,4.42 -82.83,-7.01 -134.84,-6.11l-140.9 6.4c-106.72,0 -93.31,-21.68 -136.54,22.98 -19.24,19.87 -37.8,49.27 -65.89,56.78 -41.9,-28.04 -48.9,-104.78 -71.6,-149.24 -17.79,-34.84 -15.53,-45.67 -27.75,-82.66 -6.38,-19.4 -9.86,-17.86 -18.02,-37.2l-133.96 -418.08c-4.13,-14.61 -0.67,-6.09 -5.99,-18.56l-10.6 -20.07c-7.49,-17.19 -6.23,-25.14 -8.51,-46.71 -5.07,-48.33 -32.45,-82.53 -36.11,-129.49 -5.14,-65.5 -29.98,-122.95 -36.37,-184.48 -4.7,-45.28 -2.85,-59.07 -12.92,-97.48 -18.72,-71.42 -17.54,-71.95 -25.35,-140.26 -1.89,-16.45 -11.55,-32.65 -11.55,-43.67 0,-25.85 6.38,3.81 2.84,-33.27 -9.29,-96.91 -37.31,-188.82 -39.83,-291.67 -1.52,-62.36 -5.97,-110.41 -5.97,-178.04l-2.05 -205.71c-0.09,-1.13 -1.01,-17.21 -1.01,-17.21 -1.25,-9.7 -0.3,-4.73 -2.35,-11.57 -5.88,-19.57 -6.85,10.9 -6.85,-17.01 0,-87.18 12.26,-169.4 12.26,-220.82l-1.1 -62.04c2.65,-23.92 1.13,-48.76 1.1,-72.91 -0.02,-53.88 2.15,-96.45 5.81,-141.41 10.97,-134.81 -0.34,-113.29 24.8,-263.5 3.5,-20.83 9.7,-43.62 11.57,-62.04 2.83,-28.04 -2.54,-42.72 5.21,-68.4 9.97,-33.09 5.6,-27 8.15,-65.44 4.5,-67.69 32.57,-118.55 36.67,-190.31l79.94 -367.83c9.06,-41.43 23.53,-75.36 35.75,-111.52l174.2 -500.52c9.03,-19.17 11.54,-38.14 20.02,-59.73 53.05,-135.37 125.62,-273.53 190.96,-404.05l102.13 -198.45c103.45,-192.1 229.72,-368.98 352.57,-549.15 20.56,-30.14 40.1,-56.69 61.67,-85.54l376.52 -445.49c97.16,-98.17 199.39,-210.63 303.5,-297.65 13.92,-11.64 24.02,-23.58 36.99,-36.62 50.56,-50.86 105.14,-92.3 159.71,-140.9l79.73 -67.48c27.27,-27.31 51.3,-42.88 83.77,-63.44 44.71,-28.3 82.3,-74 127.21,-99.76l83.34 -63.89c42.31,-39.47 94.5,-54.31 141.45,-85.52 68.65,-45.6 103.19,-77.59 184.57,-116.01l284.91 -162.91c69.02,-34.22 127.76,-68.35 198.28,-102.29 50.61,-24.39 103.59,-40.52 152.88,-67.99 18.55,-10.32 34.32,-17.44 53.65,-26.06 43.42,-19.34 90.59,-24.45 130.92,-46.99 38.49,-21.53 263.27,-98.45 309.73,-113.55 47.96,-15.57 48.17,-33.32 108.96,-38.25l292.51 -81.7c64.53,-33.07 46.81,-14.15 98.62,-18.57 49.43,-4.24 87.41,-21.94 136.77,-28.23 22.19,-2.84 33,-12.22 54.11,-14.31l113.18 -20.84c39.75,-8.75 77.27,-6.52 112.76,-14.26 1.03,-0.23 2.76,-0.62 3.78,-0.81l63.44 -7.35c46.74,-7.33 90.36,-5.81 140.21,-19.73 21.29,-5.94 18.41,-2.23 46.43,-2.23 23.92,0 -8.59,-6.73 54.92,-6.36l213.31 -13.71c38.39,-5.26 99.97,-3.64 138.48,-9.08 36.13,-5.1 40.28,3.55 66,4.31l116.19 -5.83c12.54,0 14.09,12.26 55.22,12.26 20.17,0 39.18,-25.05 92.02,-6.13l214.39 6.47c81.05,6.89 42.98,-0.34 98.47,-0.34 55.54,0 146.04,25 202.96,30.14 39.97,3.62 66.56,8.73 103.82,13.25 75.94,9.2 170.12,17.49 241.2,40.49 18.78,6.06 31.82,7.38 53.25,8.09 58.84,1.98 93.11,17.79 147.26,31.09 45.73,11.2 54.3,-8.78 97.74,12.24l234.21 72.5c31.69,9.81 62.36,16.75 95.15,27.53 121.22,39.83 249.91,78.45 366.26,130.63 31.41,14.08 54.92,24.47 89.46,33.23 32.36,8.2 53.68,25.25 84.56,38.14l214.57 92.13c16.64,8.97 22.68,14.61 38.58,22.77 80.08,41.09 168.58,79.99 246.72,127.47l145.07 81.92c0.9,0.62 6.85,5.76 10.21,8.18 13.65,9.89 26.32,14.45 39.94,21.41 75.43,38.56 158.58,104.44 247.88,150.86l54.22 37.77c78.22,68.4 97.39,77.27 176.3,136.54 35.07,26.36 65.26,57.78 103.04,81.01 34.01,20.94 137.28,110.8 168.36,138.34 52.8,46.8 103.71,105.66 163.93,142.81 73.88,45.56 -8.83,76.07 -90.87,178.55 -10.35,12.93 -18.9,18.72 -29.78,31.58 -60.67,71.74 -115.96,150.3 -181.32,217.41 -43.46,44.66 -80.61,95.01 -119.33,144.44 -23.82,30.4 -21.27,36.74 -67.33,92.16 -21.09,25.35 -40.01,31.37 -53.12,51.16 -34.13,51.62 -84.42,92.21 -121.38,142.4 -69.6,94.42 -167.34,179.96 -233.43,281.84 -10.07,15.56 -35.65,31.3 -35.65,50.22zm-8913.48 2833.93l0 202.41c0,87.64 18.39,174.38 14.91,255.96 -3.78,88.77 6.83,171.81 19.25,255.83 7.88,53.51 19.91,122.09 16.59,164.64 -5.95,76.11 26.2,158.59 38.65,234.04 5.14,31.25 11.98,56.21 14.4,83.75 6.02,68.81 19.98,116.19 37.79,176.25l2.17 7.38c1.52,6.59 1.43,15.76 5.72,33.96 18.11,76.7 32.7,153.09 56.85,225.8 16.78,50.45 24.36,98.27 41.34,148.81 16.23,48.21 30.95,92.87 46,138.04 21.73,65.17 95.39,299.73 119.31,346.88 12.86,25.35 19.49,40.07 30.46,67.68l208.24 448.12c17.35,30.9 23.37,67.59 44.15,96.93 22.5,31.71 29.13,58.67 49,92.08 46.8,78.7 86.35,162.41 135.87,238.34 11.16,17.08 10.17,11.31 20.15,22.79 0.83,0.97 2.02,2.33 2.81,3.32 0.8,0.99 1.91,2.44 2.67,3.48 1.06,1.45 3.85,5.88 4.82,7.44 59.32,95.53 52.84,91.03 123.13,183.58 27.38,36.02 37.03,65.73 74.39,115.78 14.4,19.31 24.66,35.7 38.42,53.58l205.15 261.04c82.96,105.64 173.76,200.84 262.62,301.73l42.96 49.06c7.92,7.98 16.31,17.86 24.89,24.18 16.84,12.37 12.92,4.49 30.39,18.71 34.78,28.32 60.38,69.21 88.91,101.24l239.14 227.06c17.56,17.06 30.28,24.57 49.11,42.89l104.01 86.19c33.02,27.75 65.7,60.13 105.52,78.49 35.35,16.3 66.19,45.84 92.76,72.87 33.74,34.39 78.4,62.48 117.41,91.15l110.55 79.62c19.43,12.81 40.47,18.34 58.63,33.39 50.54,41.9 110.11,80.02 167.7,114.49 79.09,47.34 213.38,143.97 295.53,170.65l55.91 29.98c1.15,0.7 2.72,1.59 3.87,2.26l508.43 246.1c43.65,17.89 86.58,36.95 133.99,56.19l68.35 23.67c165.12,69.55 388.89,124.76 564.47,183.9 21.09,7.1 48.67,12.93 73.93,18.09 50.12,10.23 97.57,26.32 151.41,38.76l154.89 29.15c49.96,9.11 107.69,19.78 159.91,30.26 71.21,14.29 161.89,33.28 239.07,31.8 52.5,-1.01 101.05,16.41 157.35,25.72 28.49,4.73 56.35,2.51 85.18,6.85 28.25,4.26 59.8,2.69 89.44,2.58l91.99 6.2c32.61,0 39.32,-10.51 83.27,-3.64l278.68 9.72c74.21,0 127.88,-9.08 202.71,-5.92l86.67 -5.69c41.07,-4.38 48.08,10.25 94.42,2.97 86.19,-13.53 185.4,3.2 338.61,-29.61 66.37,-14.22 52.12,-5.05 117.8,-10.95 85.23,-7.63 300.98,-47.61 380.62,-67.29 25.6,-6.32 45.1,-11.55 76.07,-15.93 61.07,-8.66 122.88,-24.77 182.08,-44.27 1.02,-0.34 2.7,-1.01 3.69,-1.29l6.98 -1.91c104.86,-22.77 52.96,-6.13 159.76,-41.71l406.45 -133.39c45.3,-16.2 86.53,-37.36 133.29,-50.75 26.2,-7.51 39.43,-7.23 66.35,-19.51l192.08 -83.96c19.7,-9.72 38.67,-16.34 60.66,-25.23 124.69,-50.52 414.95,-209.21 534.83,-281.04 38.65,-23.18 78.63,-44.76 116.57,-67.45 37.44,-22.43 72.17,-44.62 108.84,-69.07 19.49,-13 36.57,-23.28 55.45,-36.57 22.19,-15.68 24.38,-28.05 49.27,-42.73l108.75 -69.16c99.21,-68.31 183.44,-148.53 284.77,-212.09 63.74,-40 118.8,-95.17 176.92,-142.07 21.2,-17.1 29.03,-26.41 48.46,-43.58 43.17,-38.14 154.31,-135.44 186.48,-175.42l84.51 -93.4c7.61,-7.54 16.43,-12.01 24.98,-17.96 12.06,-8.41 15.03,-11.73 26.14,-22.93l501.39 -578.23c13.46,-17.99 24.64,-32.95 39.46,-52.56 14.49,-19.25 22.17,-31.16 35.28,-50.61l77.48 -106.52c37.82,-55.26 17.14,-34.82 71.39,-106.51 41.05,-54.25 147.68,-217.6 177.27,-276.66 61.09,-122.03 131.98,-230.59 190.05,-355.89 9.73,-20.97 19.13,-38.14 28.62,-57.27 10.44,-21.06 24.13,-38.37 32.41,-59.62 6.31,-16.17 4.05,-15.78 11.82,-31.11 5.41,-10.71 12.03,-21.11 17.28,-31.78 10.35,-20.97 17.03,-40.72 28.53,-63.49 26.67,-52.79 115.97,-261.7 130.32,-317.49l23.72 -68.26c25.09,-87.48 63.93,-184.11 92.66,-269.26 22.93,-67.94 18.19,-95.99 48.7,-166l29.57 -105.82c3.5,-15.97 3.84,-21.97 5.32,-32.01l29.75 -104.26c22.56,-78.84 50.22,-215.17 62.61,-299.29l25.98 -151.92c22.3,-94.92 13.27,-170.44 21.57,-205.38 29.7,-125.11 23.73,-153.96 34.54,-284.44 4.77,-57.78 -5.58,-118.6 2.91,-174.99l9.67 -82.31c1.96,-5.51 0.9,5.09 4.91,-13.49 7.77,-35.95 -17.17,-398.75 -17.17,-464.96 0,-43.32 5.9,-38.6 1.04,-80.5l-7.19 -177.12c-4.01,-82.9 -24.13,-169.64 -30.35,-251.82 -2.7,-35.49 -0.25,-56.14 -5.48,-86.53l-42.82 -239.35c-7.4,-54.62 -20.65,-105.27 -32.98,-157.17 -14.03,-59.07 -12.31,-79.26 -32.93,-144.98l-18.6 -79.53c-33.53,-133.96 -104,-381.35 -153.18,-503.2l-49.39 -140.76c-15,-45.21 -33.28,-92.11 -51.48,-132.53 -9.77,-21.75 -18.16,-37.98 -28.9,-63.12l-57.01 -133.13c-28.51,-63.47 -55.66,-132.03 -89.28,-192.92 -12.26,-22.21 -23.14,-38.51 -33.49,-58.51 -11.29,-21.82 -14.86,-42.86 -26.27,-65.75l-168.6 -297.6c-47.13,-75.64 -248.61,-398.3 -295.65,-452.73l-67.75 -73.33c-18.37,-25.19 -13.48,-35.79 -54.2,-86.88l-168.12 -206.1c-54.11,-72.98 -122.16,-120.75 -136.29,-145.87 -7.03,-12.54 -5.23,-15.88 -14.29,-28.65 -5.87,-8.29 -16.06,-17.1 -24.08,-24.98l-143.66 -138.52c-38.26,-41.35 -40.61,-53.82 -90.09,-93.94l-53.62 -44.52c-31.09,-31.78 -50.75,-72.48 -90.41,-93.63 -30.67,-16.34 -29.59,-20.61 -53.21,-38.81 -38.9,-29.96 -70.01,-77.18 -118.62,-114.49 -38.67,-29.71 -63.74,-57.78 -107.92,-82.23l-235.98 -187.29c-37.89,-25.97 -71.26,-51.78 -107.97,-76.07 -112.97,-74.78 -225.61,-152.17 -342.32,-222.02 -169.75,-101.61 -316.41,-171.39 -486.74,-261.66 -81.32,-43.09 -172.81,-79.55 -256.84,-117.37 -21.94,-9.88 -42.47,-16.38 -66.57,-25.44 -21.14,-7.9 -41.51,-19.72 -62.07,-29.93 -40.53,-20.14 -94.9,-31.46 -140.32,-49.85 -79.09,-32.03 -178.76,-56.14 -259.33,-90.34 -12,-5.09 1.36,-0.69 -16.96,-7.56 -86,-32.26 -338.83,-92.57 -437.52,-120.73l-158.16 -31.99c-28.82,-7.33 -41.73,-12.6 -79.55,-12.49 -91.9,0.35 -67.43,-12.72 -154.03,-29.98 -79.67,-15.88 -171.62,-18.44 -252.19,-30.03 -31.69,-4.56 -50.24,-9.12 -78.88,-13.11 -28.97,-4.01 -57.64,-4.4 -89.14,-9.01 -79.23,-11.57 -183.65,-5.88 -262.14,-14.31 -28.99,-3.11 -49.25,8.48 -89.21,3.8 -56.46,-6.61 -298.76,-23.76 -361.65,-10.19 -25.97,5.6 -25.7,15.65 -80.64,10.74 -34.89,-3.11 -39.38,-9.19 -82.68,-2.26 -43.86,7.01 -50.7,-3.61 -83.29,-3.64l-509.19 55.24c-18.5,2.01 -23.27,2.21 -38.02,5.1 -11.02,2.14 -11.36,2.51 -19.84,4.93l-374.28 71.35c-0.97,0.25 -2.68,0.73 -3.6,0.96l-125.2 31.51c-29.89,5.04 -42.59,17 -67.62,19.22 -9.4,0.85 -1.61,-1.69 -16.66,1.42 -19.59,4.06 -2.76,0.47 -17.91,5.58 -48.6,16.39 -129.56,29.62 -163.23,45.77l-266.35 89.44c-47.94,15.97 -84.9,36.66 -133.27,50.74 -85.16,24.8 -57.36,14.82 -137.86,52.32l-259.65 114.56c-23.23,11.13 -42.2,17.76 -63.49,28.5l-188.4 93.8c-63.83,27.01 -119.01,65.17 -179.61,96.42 -22.54,11.61 -39.76,21.78 -63.29,34.87 -21.43,11.91 -36.11,22.65 -57.56,34.45 -10.97,6.04 -17.98,8.46 -27.8,15.14 -36.34,24.66 -71.05,60.66 -113.82,76.35 -64.13,23.55 -332.59,221.35 -395.71,266.82l-176.04 142.93c-65.59,49.61 -52.91,44.96 -101.96,88.19l-51.5 40.54c-16.53,14.47 -27.1,31.71 -44.41,47.59l-104.42 85.72c-106.88,108.5 -213.47,222.41 -325.01,325.24 -24.54,22.61 -30.67,16.69 -48.55,49.6 -9.82,18.06 -2.1,10.32 -15.88,27.05l-88.86 95.18c-7.89,10.12 -13.3,17.58 -21.78,27.28 -43.47,49.64 -91.88,98.22 -130.23,151.97 -31.62,44.33 -72.92,85.82 -99.19,133.89 -26.66,48.74 -69.5,89.41 -103.96,129.17l-21.87 27.17c-93.93,164.31 -223.74,323.19 -306.66,490.8l-65.22 118.82c-67.43,123.59 -122.88,251.33 -186.32,378.01 -41.92,83.72 -70.8,178.35 -112.58,261.61 -7.53,15 -7,13.55 -11.54,31.39l-39.16 101.95c-19.33,45.33 -30.78,95.32 -48.14,142.01 -15.83,42.54 -37.98,88.63 -46.57,137.44 -10.33,58.79 -30.95,88.4 -44.66,145.51l-39.23 144.79c-10,44.18 -27.08,141.13 -41.99,178.56 -14.77,37.12 -17.83,76.07 -26.54,114.83 -6.07,26.96 -10.49,53.81 -13.81,78.19 -11.27,82.34 -32.88,154.48 -44.36,237.81 -7.47,54.13 -11.75,115.87 -18.02,172.15 -6.16,55.35 -18.19,106.93 -23.58,160.44 -6.04,59.94 -1.59,122.07 -7.95,182.19 -4.35,41.14 -12.56,78.5 -6.98,119.08 2.42,17.54 0.92,30.1 1.75,47.36 1.5,31.5 10.02,44.68 4.59,84.34 -3.81,27.84 -10.77,50.61 -10.77,87.46z"/>
   <path class="fil1" d="M1429.6 8185.02c190.61,0 361.1,6.13 552.1,6.13 99.1,0 176.53,-6.13 276.06,-6.13 539.84,0 1079.68,0 1619.51,0 108.73,0 233.75,-5.81 332.16,5.23 116.79,13.12 430.94,-1.01 588.25,1.11 7.72,0.09 36.16,0.53 41.78,-1.36 26.78,-8.97 7.08,-2.97 7.08,-23.39l0 -1165.45c-280.14,0 -575.28,10.81 -852.7,-12.28 8.8,-37.82 61.41,-89.37 87.45,-114.98l73.13 -80.22c9.72,-12.72 9.74,-21.61 20.9,-34.31l1061.24 -1251.39c9.26,-13.43 12.58,-23.55 20.71,-34.5 16.8,-22.67 33.17,-30.76 50.2,-54.06l140.96 -171.87c15.72,-21.46 33.01,-35.42 54.51,-49.8 0,180.51 6.13,340.68 6.13,521.4l0 2472 1116.61 -5.99c35.19,0.14 46.67,-5.67 73.49,-6.27l6.13 -5404.08c0,-44.99 -0.16,-90 0.03,-134.98 0.18,-53.47 -6.39,-81.42 -6.18,-134.91 0.32,-92 0.02,-184.04 0.02,-276.04l-5.94 -202.61c-0.88,-31.3 -6.34,-33.65 -6.34,-67.29 -21.98,14.72 -70.17,86.07 -124.26,139.51 -19.17,18.97 -25.72,29.71 -42.96,49.07l-58.92 69.89c-19.64,24.18 -50.98,53.88 -64.71,82.51 -0.63,1.31 -1.23,2.99 -1.8,4.33 -24.01,53.63 -84.72,91.12 -123.16,134.49 -31.57,35.63 -138.34,153.9 -159.61,196.16l-37.1 54.9c-7.42,9.15 -12.33,13.69 -20.51,22.47l-19.08 17.72c-52.09,35.07 -91.72,95.94 -130.49,145.53l-102.25 118.59c-10.87,12.26 -10.71,15.21 -21.64,27.45l-163.37 198.53c-13.87,18.58 -27.14,27.08 -41.98,43.91l-248.2 291.61c-7.4,8.69 -11.96,15.07 -18.99,23.95 -16.39,20.67 -6.34,8.06 -18.02,31.04 -19.04,37.35 -58.15,76.76 -90.06,100.11 -1.04,0.76 -2.56,1.79 -3.53,2.6 -32.82,27.01 -204.09,236.4 -240.2,281.22l-120.32 143.44c-45.03,48.6 -80.15,103.49 -122.3,153.76 -42.43,50.53 -59.62,55.3 -124.49,139.28l-124.17 145.74c-40.15,49.16 -77.55,102.32 -122.72,147.19 -7.33,7.28 -15.44,13.78 -21.52,21.41 -12.38,15.51 -8.14,16.27 -17.06,32.03 -20.37,36 -55.54,68.68 -84.23,93.66 -30.42,26.48 -184.8,210.98 -205.77,242.02 -14.56,21.59 -23.94,31.18 -40.79,51.21l-166.43 189.38c-14.68,18.56 -25.7,34.18 -41.05,50.96 -28,30.56 -19.54,43.71 -43.37,67.04l-9.45 8.96c-25.74,26.48 -47.26,39.78 -70.84,70.24 -12.28,15.86 -26.02,32.11 -38.94,46.92l-904.76 1070.51c-14.59,14.95 -29.04,34.93 -41.28,50.72l-142.35 164.38c-8.9,9.31 -13.71,17.03 -21.94,27.12 -29.68,36.39 -50.97,66.28 -82.59,101.43 -13.95,15.53 -24.11,32.1 -36.69,49.2 -38.74,52.57 -86.47,92.73 -126.7,143.2 -45.66,57.32 -104.03,109.45 -138.94,173.9 -12.2,22.52 -43.19,55.47 -63.4,71.56 -51.85,41.23 -196.37,227.09 -249.65,290.16l-286.41 339.3c-19.98,21.43 -25.23,23.34 -42.68,49.32 -16.45,24.47 -28.71,26.82 -35.61,56.41z"/>
   <path class="fil2" d="M5509.07 8362.91l0 1140.93c0,14.12 4.26,18.39 18.39,18.39l662.53 0c143.22,0.04 262.09,-11.46 420.18,-1.96 24.85,1.47 19.04,2.03 42.48,-1.59 35.09,-5.42 53.76,3.55 89.46,3.55 32.19,0 44.01,-6.5 67.13,-5.83 21.78,0.62 35.63,5.83 67.82,5.83l2085.74 0c37.38,0 216.21,-165.08 265.69,-206.65l431.04 -366.4c16.89,-13.11 23.21,-22.15 39.29,-34.34l219.17 -179.57c27.17,-22.83 54.2,-53.62 80.01,-79.46 10.02,-10.02 30.35,-33 40.12,-39.63 24.48,-16.62 7.28,4.65 50.03,-29.71 32.15,-25.83 55.7,-46.69 87.37,-72.15 26.32,-21.18 159.22,-120.19 167.56,-151.41 -30.7,0 -37.89,-6.29 -73.4,-6.36 -214.81,-0.28 -1081.06,7.35 -1191.21,-5 -51.74,-5.83 -105.57,4.44 -156.94,-2.58 -58.61,-8.05 -398.94,-4.48 -474.02,-4.48 -110.8,0 -200.96,-6.13 -312.86,-6.13 -108.39,0 -216.77,0 -325.13,0 -120.27,0 -220.2,6.13 -337.41,6.13 -63.92,0.03 -105.98,-6.36 -165.62,-6.15 -254.81,0.95 -1476.65,-9.42 -1578.26,4.5l-176.76 1.12c-22.86,-0.16 -42.4,-4.72 -42.4,18.95z"/>
   <path class="fil3" d="M7361.68 6553.37l-6.13 1545.78c-0.11,75.25 -24.84,90.85 91.79,92.25 125.23,1.5 234.05,-6.38 362.18,-6.38 87.94,0 470.84,-4.38 535.37,4.45 35.1,4.82 73.01,1.66 108.75,1.68 28.64,0.02 92.02,11.55 92.02,-18.41l0 -3582.26c0,-160.35 -6.13,-299.94 -6.13,-460.06 -21,5.6 -19.15,8.65 -30.9,24.32 -8.58,11.43 -15.45,19.54 -24.32,30.9l-127.16 148.87c-13.16,15.31 -13.32,20.33 -22.49,38.84l-24.29 30.92c-10.63,11.25 -16.34,17.03 -25.88,29.34 -11,14.15 -12.43,17.4 -25.42,29.8 -29.57,28.3 -50.33,41.92 -85.04,86.72 -36.69,47.35 -81.14,88.12 -112.44,139.05l-31.85 41.78c-0.87,0.9 -2.19,2.15 -3.09,3.02 -0.89,0.9 -2.28,2.1 -3.18,2.97 -30.51,29.64 -11.08,22.57 -49.8,60.61 -19.29,18.95 -41.02,38.21 -58.07,58.49l-101.84 125.12c-17.67,20.9 -33.78,38.09 -50.86,59.57 -1.64,2.07 -9.45,12.63 -10.44,14.08 -8.85,12.95 -4.35,6.8 -11.52,19.15 -18.64,32.17 -27.7,38.62 -52.11,64.46 -27.47,29.08 -24.7,10.53 -57.24,53.16l-234.58 274.57c-59.09,65.86 -41.46,72.61 -41.46,185.51 0,305.17 6.13,593.95 6.13,901.7z"/>
  </g>
  <path class="fil4 str0" d="M1882.65 2884.34l376.52 -445.49c97.16,-98.17 199.39,-210.63 303.5,-297.65 13.92,-11.64 24.02,-23.58 36.99,-36.62 50.56,-50.86 105.14,-92.3 159.71,-140.9l79.73 -67.48c27.27,-27.31 51.3,-42.88 83.77,-63.44 44.71,-28.3 82.3,-74 127.21,-99.76l83.34 -63.89c42.31,-39.47 94.5,-54.31 141.45,-85.52 68.65,-45.6 103.19,-77.59 184.57,-116.01l284.91 -162.91c69.02,-34.22 127.76,-68.35 198.28,-102.29 50.61,-24.39 103.59,-40.52 152.88,-67.99 18.55,-10.32 34.32,-17.44 53.65,-26.06 43.42,-19.34 90.59,-24.45 130.92,-46.99 38.49,-21.53 263.27,-98.45 309.73,-113.55 47.96,-15.57 48.17,-33.32 108.96,-38.25l292.51 -81.7c64.53,-33.07 46.81,-14.15 98.62,-18.57 49.43,-4.24 87.41,-21.94 136.77,-28.23 22.19,-2.84 33,-12.22 54.11,-14.31l113.18 -20.84c39.75,-8.75 77.27,-6.52 112.76,-14.26 1.03,-0.23 2.76,-0.62 3.78,-0.81l63.44 -7.35c46.74,-7.33 90.36,-5.81 140.21,-19.73 21.29,-5.94 18.41,-2.23 46.43,-2.23 23.92,0 -8.59,-6.73 54.92,-6.36l213.31 -13.71c38.39,-5.26 99.97,-3.64 138.48,-9.08 36.13,-5.1 40.28,3.55 66,4.31l116.19 -5.83c12.54,0 14.09,12.26 55.22,12.26 20.17,0 39.18,-25.05 92.02,-6.13l214.39 6.47c81.05,6.89 42.98,-0.34 98.47,-0.34 55.54,0 146.04,25 202.96,30.14 39.97,3.62 66.56,8.73 103.82,13.25 75.94,9.2 170.12,17.49 241.2,40.49 18.78,6.06 31.82,7.38 53.25,8.09 58.84,1.98 93.11,17.79 147.26,31.09 45.73,11.2 54.3,-8.78 97.74,12.24l234.21 72.5c31.69,9.81 62.36,16.75 95.15,27.53 121.22,39.83 249.91,78.45 366.26,130.63 31.41,14.08 54.92,24.47 89.46,33.23 32.36,8.2 53.68,25.25 84.56,38.14l214.57 92.13c16.64,8.97 22.68,14.61 38.58,22.77 80.08,41.09 168.58,79.99 246.72,127.47l145.07 81.92c0.9,0.62 6.85,5.76 10.21,8.18 13.65,9.89 26.32,14.45 39.94,21.41 75.43,38.56 158.58,104.44 247.88,150.86l54.22 37.77c78.22,68.4 97.39,77.27 176.3,136.54 35.07,26.36 65.26,57.78 103.04,81.01 34.01,20.94 137.28,110.8 168.36,138.34 52.8,46.8 103.71,105.66 163.93,142.81 73.88,45.56 -8.83,76.07 -90.87,178.55 -10.35,12.93 -18.9,18.72 -29.78,31.58 -60.67,71.74 -115.96,150.3 -181.32,217.41 -43.46,44.66 -80.61,95.01 -119.33,144.44 -23.82,30.4 -21.27,36.74 -67.33,92.16 -21.09,25.35 -40.01,31.37 -53.12,51.16 -34.13,51.62 -84.42,92.21 -121.38,142.4 -69.6,94.42 -167.34,179.96 -233.43,281.84 -10.07,15.56 -35.65,31.3 -35.65,50.22l0 4833.62 1177.82 0c0,-35 -6.13,-42.43 -6.13,-79.74l0 -5404.08c0,-46.92 2.01,-260.78 12.26,-282.17 28.12,2.35 10.54,-3.39 24.59,12.22 19.13,21.17 33.46,48.85 55.33,67.36l148.46 176.64c26.16,32.1 47.78,59 74.14,91.49 25.3,31.18 44.78,58.6 70.15,89.35l40.03 39.73c32.1,30.23 32.82,63 63.1,102.53 15.37,20.05 22.21,27.42 36.96,48.9 15.72,22.88 22.77,21.15 34.11,45.63 23.85,51.46 64.53,102.57 97.23,148.16 66.69,93.03 293.23,504.99 349.69,631.76 17.42,39.11 26.89,78.86 46.99,118.64 19.17,37.91 33.25,71.46 51.18,108.31l90.75 234.35c7.31,23.21 9.04,39.08 17.22,62.52 8.29,23.76 15.51,38.28 24.43,61.46 62.29,162.29 143.06,470.22 176.89,638.94 9.54,47.54 11.78,98.17 23.09,142.55 37.18,145.79 23.21,169.76 44.41,280.67l36.87 353.93c0.6,16.5 -4.74,49.62 -0.99,76.38l8.05 112.89c0.48,16.27 -3.58,12.5 -3.58,36 0,94.56 6.69,249.21 0.35,337.45 -3.64,50.73 -19.61,202.16 -8.53,234.72 8.05,23.65 13.99,4.98 3.07,66.76 -7.91,44.87 -21.07,95.48 -21.92,138.57 -0.76,39 -17.01,95.39 -21.22,137.31l-33.05 218.45c-8.62,39.91 -11.08,101.1 -21.43,144.19 -11.76,48.95 -25.86,76.67 -33.28,132.33 -6.48,48.37 -24.93,157.14 -46.76,198.62 -10.46,19.87 -14.26,41 -21.98,63.89 -14.98,44.36 -22.08,84.3 -36.74,128.89 -29.33,89.28 -70.63,218.91 -107.04,303.94 -9.13,21.32 -13.85,40.15 -22.98,62.89 -62.57,155.54 -127.33,310.98 -203.01,459.51 -11.84,23.25 -17.53,27.63 -27.6,52.1 -8.28,20.1 -16.62,37.77 -28.56,57.36 -51.8,85.01 -94.64,180.03 -147.17,263.82 -53.16,84.86 -116.05,166.41 -163.71,253.41l-32.15 47.59c-13.39,17.84 -22.54,31.5 -35.88,49.98l-41.41 56.76c-8.41,12.61 -3.87,4.57 -8.55,15.98 -6.73,16.38 -1.52,14.24 -12.81,30.14 -5.4,7.58 -10.74,11.04 -17.68,19.13 -56.97,66.57 -107.41,142.69 -165.95,208.21l-153.46 177.8c-14.38,16.31 -28.34,26.47 -42.68,43.23l-32.75 53.12c-11.66,20.88 -32.63,36.96 -51.53,52.75 -36.2,30.26 -74.87,62.52 -101,101.42 -28.19,41.99 -73.24,52.43 -103.48,86.67 -47.1,53.33 -193.44,162.34 -237.92,216.03l-209.32 164.87c-27.91,22.93 -62.24,56 -91.93,73.7 -23.04,13.76 -27.44,19.29 -53.14,32.74 -12.19,6.37 -13.8,7.93 -22.88,13.92l-224.14 150.05c-118.66,79.42 -240.78,150.44 -368.52,214.25l-335.29 167.73c-17.95,8.99 -37.14,20.32 -53.14,26.62l-236.95 94.27c-12.24,3.95 -21.11,6.2 -31.87,11.11 -13.99,6.36 -10.35,7.56 -28.46,14.47 -20.54,7.82 -39.94,11.32 -62.09,17.66 -36.36,10.37 -72.64,18.39 -102.41,38.69 -21.62,14.73 -55.4,16.04 -86.56,23.85 -42.22,10.58 -81.14,28.6 -124.21,41.39 -46.12,13.69 -88.82,22.84 -132.44,33.21 -51.88,12.31 -76.15,28.37 -130.05,35.58 -59.3,7.93 -84.37,14.96 -135.85,29.75l-281.43 49.92c-13.11,1.13 -21.57,-0.81 -28.25,-0.25 -10.7,0.87 -0.7,-1.43 -12.59,2.74 -40.35,14.1 -175.72,25.67 -230.7,32.63 -48.05,6.09 -101.5,22.72 -149.04,22.72 -28.09,0 1.2,-2.83 -16.45,-6.68 -0.95,-0.21 -2.75,-0.69 -3.74,-0.81 -0.96,-0.11 -2.76,-0.23 -3.73,-0.23 -0.11,-0.02 -9.89,1.87 -12.01,2.29 -32.03,6.22 -22.17,-0.7 -56.09,-0.7 -41.8,0 -58,7.72 -93.56,8.95 -21.23,0.71 -64.48,-2.72 -96.68,-2.89 -42.98,-0.23 -58.42,6.37 -97.87,6.43 -84.09,0.12 -183.23,3.88 -264.88,-5.46 -15.58,-1.77 -38.47,-1.5 -54.23,-0.34 -63.42,4.72 -137.97,-2.77 -202.29,-7.59 -47.25,-3.52 -17.42,16.32 -81.01,-4.6l-317.7 -46.46c-133.92,-10.97 -353.93,-55.31 -490.52,-89.63 -39.61,-9.95 -91.86,-14.24 -121.98,-25.25l-218.1 -76.35c-28.74,-9.71 -51.9,-10.31 -79.39,-18.76 -26.6,-8.18 -43.44,-19.94 -68.15,-30.01 -27.35,-11.13 -49.08,-12.47 -75.72,-22.42 -26.64,-9.98 -42.64,-22.15 -69.48,-28.67 -53.79,-13.07 -90.43,-38.3 -141.39,-54.92 -64.76,-21.11 -270.18,-117.87 -338.74,-152l-129.33 -66.97c-21.83,-13.07 -43.53,-22.63 -64.9,-33.26 -64.41,-32.03 -128.29,-66.58 -187.68,-106.77l-153.3 -92.06c-21.7,-13.41 -44.34,-18.05 -63.95,-34.2l-480.91 -353.38c-25.85,-17.74 -33.34,-22.58 -51.89,-46.25 -23.28,-29.71 -142.54,-129.61 -180.22,-163.3l-56.25 -41.87c-11.11,-6.57 -20.95,-12.89 -28.58,-20.51l-171.34 -172.2c-0.76,-1.04 -1.71,-2.58 -2.42,-3.71 -0.72,-1.15 -1.41,-2.83 -2.05,-4.06 -28.58,-53.78 -70.11,-80.15 -106.86,-126.24 -33.95,-42.54 -71.17,-91.19 -113.89,-125.34 -57.64,-46.07 -75.2,-106.36 -109.63,-141.89l-91.08 -105.23c-55,-72.77 -34.52,-80.01 12.96,-139.51 9.79,-12.29 8.06,-13.25 18.92,-24.04 47.82,-47.59 15.99,-5.35 83.12,-88.63 26.99,-33.51 50.17,-61.99 76.9,-94.86l155.65 -181.73c14.29,-16.25 23.12,-31.97 37.31,-48.58l73.15 -98.61c24.4,-29.8 49.02,-68.42 76.49,-95.27l121.86 -129.63c26.34,-33.74 55.63,-61.23 75.24,-96.54 20.93,-37.63 58.84,-94.74 96.35,-118.34 36.23,-22.79 72.74,-72.57 99.88,-109.09 17.4,-23.42 26.62,-39.85 -16.41,-42.11 -114.02,-5.92 -223.01,6.85 -338.28,6.82 -141.86,0 -689.03,-6.93 -767.13,-0.29 -52.06,4.42 -82.83,-7.01 -134.84,-6.11l-140.9 6.4c-106.72,0 -93.31,-21.68 -136.54,22.98 -19.24,19.87 -37.8,49.27 -65.89,56.78 -41.9,-28.04 -48.9,-104.78 -71.6,-149.24 -17.79,-34.84 -15.53,-45.67 -27.75,-82.66 -6.38,-19.4 -9.86,-17.86 -18.02,-37.2l-133.96 -418.08c-4.13,-14.61 -0.67,-6.09 -5.99,-18.56l-10.6 -20.07c-7.49,-17.19 -6.23,-25.14 -8.51,-46.71 -5.07,-48.33 -32.45,-82.53 -36.11,-129.49 -5.14,-65.5 -29.98,-122.95 -36.37,-184.48 -4.7,-45.28 -2.85,-59.07 -12.92,-97.48 -18.72,-71.42 -17.54,-71.95 -25.35,-140.26 -1.89,-16.45 -11.55,-32.65 -11.55,-43.67 0,-25.85 6.38,3.81 2.84,-33.27 -9.29,-96.91 -37.31,-188.82 -39.83,-291.67 -1.52,-62.36 -5.97,-110.41 -5.97,-178.04l-2.05 -205.71c-0.09,-1.13 -1.01,-17.21 -1.01,-17.21 -1.25,-9.7 -0.3,-4.73 -2.35,-11.57 -5.88,-19.57 -6.85,10.9 -6.85,-17.01 0,-87.18 12.26,-169.4 12.26,-220.82l-1.1 -62.04c2.65,-23.92 1.13,-48.76 1.1,-72.91 -0.02,-53.88 2.15,-96.45 5.81,-141.41 10.97,-134.81 -0.34,-113.29 24.8,-263.5 3.5,-20.83 9.7,-43.62 11.57,-62.04 2.83,-28.04 -2.54,-42.72 5.21,-68.4 9.97,-33.09 5.6,-27 8.15,-65.44 4.5,-67.69 32.57,-118.55 36.67,-190.31l79.94 -367.83c9.06,-41.43 23.53,-75.36 35.75,-111.52l174.2 -500.52c9.03,-19.17 11.54,-38.14 20.02,-59.73 53.05,-135.37 125.62,-273.53 190.96,-404.05l102.13 -198.45c103.45,-192.1 229.72,-368.98 352.57,-549.15 20.56,-30.14 40.1,-56.69 61.67,-85.54zm-1594.07 3300.99l0 202.41c0,87.64 18.39,174.38 14.91,255.96 -3.78,88.77 6.83,171.81 19.25,255.83 7.88,53.51 19.91,122.09 16.59,164.64 -5.95,76.11 26.2,158.59 38.65,234.04 5.14,31.25 11.98,56.21 14.4,83.75 6.02,68.81 19.98,116.19 37.79,176.25l2.17 7.38c1.52,6.59 1.43,15.76 5.72,33.96 18.11,76.7 32.7,153.09 56.85,225.8 16.78,50.45 24.36,98.27 41.34,148.81 16.23,48.21 30.95,92.87 46,138.04 21.73,65.17 95.39,299.73 119.31,346.88 12.86,25.35 19.49,40.07 30.46,67.68l208.24 448.12c17.35,30.9 23.37,67.59 44.15,96.93 22.5,31.71 29.13,58.67 49,92.08 46.8,78.7 86.35,162.41 135.87,238.34 11.16,17.08 10.17,11.31 20.15,22.79 0.83,0.97 2.02,2.33 2.81,3.32 0.8,0.99 1.91,2.44 2.67,3.48 1.06,1.45 3.85,5.88 4.82,7.44 59.32,95.53 52.84,91.03 123.13,183.58 27.38,36.02 37.03,65.73 74.39,115.78 14.4,19.31 24.66,35.7 38.42,53.58l205.15 261.04c82.96,105.64 173.76,200.84 262.62,301.73l42.96 49.06c7.92,7.98 16.31,17.86 24.89,24.18 16.84,12.37 12.92,4.49 30.39,18.71 34.78,28.32 60.38,69.21 88.91,101.24l239.14 227.06c17.56,17.06 30.28,24.57 49.11,42.89l104.01 86.19c33.02,27.75 65.7,60.13 105.52,78.49 35.35,16.3 66.19,45.84 92.76,72.87 33.74,34.39 78.4,62.48 117.41,91.15l110.55 79.62c19.43,12.81 40.47,18.34 58.63,33.39 50.54,41.9 110.11,80.02 167.7,114.49 79.09,47.34 213.38,143.97 295.53,170.65l55.91 29.98c1.15,0.7 2.72,1.59 3.87,2.26l508.43 246.1c43.65,17.89 86.58,36.95 133.99,56.19l68.35 23.67c165.12,69.55 388.89,124.76 564.47,183.9 21.09,7.1 48.67,12.93 73.93,18.09 50.12,10.23 97.57,26.32 151.41,38.76l154.89 29.15c49.96,9.11 107.69,19.78 159.91,30.26 71.21,14.29 161.89,33.28 239.07,31.8 52.5,-1.01 101.05,16.41 157.35,25.72 28.49,4.73 56.35,2.51 85.18,6.85 28.25,4.26 59.8,2.69 89.44,2.58l91.99 6.2c32.61,0 39.32,-10.51 83.27,-3.64l278.68 9.72c74.21,0 127.88,-9.08 202.71,-5.92l86.67 -5.69c41.07,-4.38 48.08,10.25 94.42,2.97 86.19,-13.53 185.4,3.2 338.61,-29.61 66.37,-14.22 52.12,-5.05 117.8,-10.95 85.23,-7.63 300.98,-47.61 380.62,-67.29 25.6,-6.32 45.1,-11.55 76.07,-15.93 61.07,-8.66 122.88,-24.77 182.08,-44.27 1.02,-0.34 2.7,-1.01 3.69,-1.29l6.98 -1.91c104.86,-22.77 52.96,-6.13 159.76,-41.71l406.45 -133.39c45.3,-16.2 86.53,-37.36 133.29,-50.75 26.2,-7.51 39.43,-7.23 66.35,-19.51l192.08 -83.96c19.7,-9.72 38.67,-16.34 60.66,-25.23 124.69,-50.52 414.95,-209.21 534.83,-281.04 38.65,-23.18 78.63,-44.76 116.57,-67.45 37.44,-22.43 72.17,-44.62 108.84,-69.07 19.49,-13 36.57,-23.28 55.45,-36.57 22.19,-15.68 24.38,-28.05 49.27,-42.73l108.75 -69.16c99.21,-68.31 183.44,-148.53 284.77,-212.09 63.74,-40 118.8,-95.17 176.92,-142.07 21.2,-17.1 29.03,-26.41 48.46,-43.58 43.17,-38.14 154.31,-135.44 186.48,-175.42l84.51 -93.4c7.61,-7.54 16.43,-12.01 24.98,-17.96 12.06,-8.41 15.03,-11.73 26.14,-22.93l501.39 -578.23c13.46,-17.99 24.64,-32.95 39.46,-52.56 14.49,-19.25 22.17,-31.16 35.28,-50.61l77.48 -106.52c37.82,-55.26 17.14,-34.82 71.39,-106.51 41.05,-54.25 147.68,-217.6 177.27,-276.66 61.09,-122.03 131.98,-230.59 190.05,-355.89 9.73,-20.97 19.13,-38.14 28.62,-57.27 10.44,-21.06 24.13,-38.37 32.41,-59.62 6.31,-16.17 4.05,-15.78 11.82,-31.11 5.41,-10.71 12.03,-21.11 17.28,-31.78 10.35,-20.97 17.03,-40.72 28.53,-63.49 26.67,-52.79 115.97,-261.7 130.32,-317.49l23.72 -68.26c25.09,-87.48 63.93,-184.11 92.66,-269.26 22.93,-67.94 18.19,-95.99 48.7,-166l29.57 -105.82c3.5,-15.97 3.84,-21.97 5.32,-32.01l29.75 -104.26c22.56,-78.84 50.22,-215.17 62.61,-299.29l25.98 -151.92c22.3,-94.92 13.27,-170.44 21.57,-205.38 29.7,-125.11 23.73,-153.96 34.54,-284.44 4.77,-57.78 -5.58,-118.6 2.91,-174.99l9.67 -82.31c1.96,-5.51 0.9,5.09 4.91,-13.49 7.77,-35.95 -17.17,-398.75 -17.17,-464.96 0,-43.32 5.9,-38.6 1.04,-80.5l-7.19 -177.12c-4.01,-82.9 -24.13,-169.64 -30.35,-251.82 -2.7,-35.49 -0.25,-56.14 -5.48,-86.53l-42.82 -239.35c-7.4,-54.62 -20.65,-105.27 -32.98,-157.17 -14.03,-59.07 -12.31,-79.26 -32.93,-144.98l-18.6 -79.53c-33.53,-133.96 -104,-381.35 -153.18,-503.2l-49.39 -140.76c-15,-45.21 -33.28,-92.11 -51.48,-132.53 -9.77,-21.75 -18.16,-37.98 -28.9,-63.12l-57.01 -133.13c-28.51,-63.47 -55.66,-132.03 -89.28,-192.92 -12.26,-22.21 -23.14,-38.51 -33.49,-58.51 -11.29,-21.82 -14.86,-42.86 -26.27,-65.75l-168.6 -297.6c-47.13,-75.64 -248.61,-398.3 -295.65,-452.73l-67.75 -73.33c-18.37,-25.19 -13.48,-35.79 -54.2,-86.88l-168.12 -206.1c-54.11,-72.98 -122.16,-120.75 -136.29,-145.87 -7.03,-12.54 -5.23,-15.88 -14.29,-28.65 -5.87,-8.29 -16.06,-17.1 -24.08,-24.98l-143.66 -138.52c-38.26,-41.35 -40.61,-53.82 -90.09,-93.94l-53.62 -44.52c-31.09,-31.78 -50.75,-72.48 -90.41,-93.63 -30.67,-16.34 -29.59,-20.61 -53.21,-38.81 -38.9,-29.96 -70.01,-77.18 -118.62,-114.49 -38.67,-29.71 -63.74,-57.78 -107.92,-82.23l-235.98 -187.29c-37.89,-25.97 -71.26,-51.78 -107.97,-76.07 -112.97,-74.78 -225.61,-152.17 -342.32,-222.02 -169.75,-101.61 -316.41,-171.39 -486.74,-261.66 -81.32,-43.09 -172.81,-79.55 -256.84,-117.37 -21.94,-9.88 -42.47,-16.38 -66.57,-25.44 -21.14,-7.9 -41.51,-19.72 -62.07,-29.93 -40.53,-20.14 -94.9,-31.46 -140.32,-49.85 -79.09,-32.03 -178.76,-56.14 -259.33,-90.34 -12,-5.09 1.36,-0.69 -16.96,-7.56 -86,-32.26 -338.83,-92.57 -437.52,-120.73l-158.16 -31.99c-28.82,-7.33 -41.73,-12.6 -79.55,-12.49 -91.9,0.35 -67.43,-12.72 -154.03,-29.98 -79.67,-15.88 -171.62,-18.44 -252.19,-30.03 -31.69,-4.56 -50.24,-9.12 -78.88,-13.11 -28.97,-4.01 -57.64,-4.4 -89.14,-9.01 -79.23,-11.57 -183.65,-5.88 -262.14,-14.31 -28.99,-3.11 -49.25,8.48 -89.21,3.8 -56.46,-6.61 -298.76,-23.76 -361.65,-10.19 -25.97,5.6 -25.7,15.65 -80.64,10.74 -34.89,-3.11 -39.38,-9.19 -82.68,-2.26 -43.86,7.01 -50.7,-3.61 -83.29,-3.64l-509.19 55.24c-18.5,2.01 -23.27,2.21 -38.02,5.1 -11.02,2.14 -11.36,2.51 -19.84,4.93l-374.28 71.35c-0.97,0.25 -2.68,0.73 -3.6,0.96l-125.2 31.51c-29.89,5.04 -42.59,17 -67.62,19.22 -9.4,0.85 -1.61,-1.69 -16.66,1.42 -19.59,4.06 -2.76,0.47 -17.91,5.58 -48.6,16.39 -129.56,29.62 -163.23,45.77l-266.35 89.44c-47.94,15.97 -84.9,36.66 -133.27,50.74 -85.16,24.8 -57.36,14.82 -137.86,52.32l-259.65 114.56c-23.23,11.13 -42.2,17.76 -63.49,28.5l-188.4 93.8c-63.83,27.01 -119.01,65.17 -179.61,96.42 -22.54,11.61 -39.76,21.78 -63.29,34.87 -21.43,11.91 -36.11,22.65 -57.56,34.45 -10.97,6.04 -17.98,8.46 -27.8,15.14 -36.34,24.66 -71.05,60.66 -113.82,76.35 -64.13,23.55 -332.59,221.35 -395.71,266.82l-176.04 142.93c-65.59,49.61 -52.91,44.96 -101.96,88.19l-51.5 40.54c-16.53,14.47 -27.1,31.71 -44.41,47.59l-104.42 85.72c-106.88,108.5 -213.47,222.41 -325.01,325.24 -24.54,22.61 -30.67,16.69 -48.55,49.6 -9.82,18.06 -2.1,10.32 -15.88,27.05l-88.86 95.18c-7.89,10.12 -13.3,17.58 -21.78,27.28 -43.47,49.64 -91.88,98.22 -130.23,151.97 -31.62,44.33 -72.92,85.82 -99.19,133.89 -26.66,48.74 -69.5,89.41 -103.96,129.17l-21.87 27.17c-93.93,164.31 -223.74,323.19 -306.66,490.8l-65.22 118.82c-67.43,123.59 -122.88,251.33 -186.32,378.01 -41.92,83.72 -70.8,178.35 -112.58,261.61 -7.53,15 -7,13.55 -11.54,31.39l-39.16 101.95c-19.33,45.33 -30.78,95.32 -48.14,142.01 -15.83,42.54 -37.98,88.63 -46.57,137.44 -10.33,58.79 -30.95,88.4 -44.66,145.51l-39.23 144.79c-10,44.18 -27.08,141.13 -41.99,178.56 -14.77,37.12 -17.83,76.07 -26.54,114.83 -6.07,26.96 -10.49,53.81 -13.81,78.19 -11.27,82.34 -32.88,154.48 -44.36,237.81 -7.47,54.13 -11.75,115.87 -18.02,172.15 -6.16,55.35 -18.19,106.93 -23.58,160.44 -6.04,59.94 -1.59,122.07 -7.95,182.19 -4.35,41.14 -12.56,78.5 -6.98,119.08 2.42,17.54 0.92,30.1 1.75,47.36 1.5,31.5 10.02,44.68 4.59,84.34 -3.81,27.84 -10.77,50.61 -10.77,87.46z"/>
  <path class="fil5 str0" d="M4956.05 3994.57l-120.32 143.44c-45.03,48.6 -80.15,103.49 -122.3,153.76 -42.43,50.53 -59.62,55.3 -124.49,139.28l-124.17 145.74c-40.15,49.16 -77.55,102.32 -122.72,147.19 -7.33,7.28 -15.44,13.78 -21.52,21.41 -12.38,15.51 -8.14,16.27 -17.06,32.03 -20.37,36 -55.54,68.68 -84.23,93.66 -30.42,26.48 -184.8,210.98 -205.77,242.02 -14.56,21.59 -23.94,31.18 -40.79,51.21l-166.43 189.38c-14.68,18.56 -25.7,34.18 -41.05,50.96 -28,30.56 -19.54,43.71 -43.37,67.04l-9.45 8.96c-25.74,26.48 -47.26,39.78 -70.84,70.24 -12.28,15.86 -26.02,32.11 -38.94,46.92l-904.76 1070.51c-14.59,14.95 -29.04,34.93 -41.28,50.72l-142.35 164.38c-8.9,9.31 -13.71,17.03 -21.94,27.12 -29.68,36.39 -50.97,66.28 -82.59,101.43 -13.95,15.53 -24.11,32.1 -36.69,49.2 -38.74,52.57 -86.47,92.73 -126.7,143.2 -45.66,57.32 -104.03,109.45 -138.94,173.9 -12.2,22.52 -43.19,55.47 -63.4,71.56 -51.85,41.23 -196.37,227.09 -249.65,290.16l-286.41 339.3c-19.98,21.43 -25.23,23.34 -42.68,49.32 -16.45,24.47 -28.71,26.82 -35.61,56.41 190.61,0 361.1,6.13 552.1,6.13 99.1,0 176.53,-6.13 276.06,-6.13 539.84,0 1079.68,0 1619.51,0 108.73,0 233.75,-5.81 332.16,5.23 116.79,13.12 430.94,-1.01 588.25,1.11 7.72,0.09 36.16,0.53 41.78,-1.36 26.78,-8.97 7.08,-2.97 7.08,-23.39l0 -1165.45c-280.14,0 -575.28,10.81 -852.7,-12.28 8.8,-37.82 61.41,-89.37 87.45,-114.98l73.13 -80.22c9.72,-12.72 9.74,-21.61 20.9,-34.31l1061.24 -1251.39c9.26,-13.43 12.58,-23.55 20.71,-34.5 16.8,-22.67 33.17,-30.76 50.2,-54.06l140.96 -171.87c15.72,-21.46 33.01,-35.42 54.51,-49.8 0,180.51 6.13,340.68 6.13,521.4l0 2472 1116.61 -5.99c35.19,0.14 46.67,-5.67 73.49,-6.27l6.13 -5404.08c0,-44.99 -0.16,-90 0.03,-134.98 0.18,-53.47 -6.39,-81.42 -6.18,-134.91 0.32,-92 0.02,-184.04 0.02,-276.04l-5.94 -202.61c-0.88,-31.3 -6.34,-33.65 -6.34,-67.29 -21.98,14.72 -70.17,86.07 -124.26,139.51 -19.17,18.97 -25.72,29.71 -42.96,49.07l-58.92 69.89c-19.64,24.18 -50.98,53.88 -64.71,82.51 -0.63,1.31 -1.23,2.99 -1.8,4.33 -24.01,53.63 -84.72,91.12 -123.16,134.49 -31.57,35.63 -138.34,153.9 -159.61,196.16l-37.1 54.9c-7.42,9.15 -12.33,13.69 -20.51,22.47l-19.08 17.72c-52.09,35.07 -91.72,95.94 -130.49,145.53l-102.25 118.59c-10.87,12.26 -10.71,15.21 -21.64,27.45l-163.37 198.53c-13.87,18.58 -27.14,27.08 -41.98,43.91l-248.2 291.61c-7.4,8.69 -11.96,15.07 -18.99,23.95 -16.39,20.67 -6.34,8.06 -18.02,31.04 -19.04,37.35 -58.15,76.76 -90.06,100.11 -1.04,0.76 -2.56,1.79 -3.53,2.6 -32.82,27.01 -204.09,236.4 -240.2,281.22z"/>
  <path class="fil6 str0" d="M7355.55 5651.67c0,305.17 6.13,593.95 6.13,901.7l-6.13 1545.78c-0.11,75.25 -24.84,90.85 91.79,92.25 125.23,1.5 234.05,-6.38 362.18,-6.38 87.94,0 470.84,-4.38 535.37,4.45 35.1,4.82 73.01,1.66 108.75,1.68 28.64,0.02 92.02,11.55 92.02,-18.41l0 -3582.26c0,-160.35 -6.13,-299.94 -6.13,-460.06 -21,5.6 -19.15,8.65 -30.9,24.32 -8.58,11.43 -15.45,19.54 -24.32,30.9l-127.16 148.87c-13.16,15.31 -13.32,20.33 -22.49,38.84l-24.29 30.92c-10.63,11.25 -16.34,17.03 -25.88,29.34 -11,14.15 -12.43,17.4 -25.42,29.8 -29.57,28.3 -50.33,41.92 -85.04,86.72 -36.69,47.35 -81.14,88.12 -112.44,139.05l-31.85 41.78c-0.87,0.9 -2.19,2.15 -3.09,3.02 -0.89,0.9 -2.28,2.1 -3.18,2.97 -30.51,29.64 -11.08,22.57 -49.8,60.61 -19.29,18.95 -41.02,38.21 -58.07,58.49l-101.84 125.12c-17.67,20.9 -33.78,38.09 -50.86,59.57 -1.64,2.07 -9.45,12.63 -10.44,14.08 -8.85,12.95 -4.35,6.8 -11.52,19.15 -18.64,32.17 -27.7,38.62 -52.11,64.46 -27.47,29.08 -24.7,10.53 -57.24,53.16l-234.58 274.57c-59.09,65.86 -41.46,72.61 -41.46,185.51z"/>
  <path class="fil7 str0" d="M8134.65 8338.36c-108.39,0 -216.77,0 -325.13,0 -120.27,0 -220.2,6.13 -337.41,6.13 -63.92,0.03 -105.98,-6.36 -165.62,-6.15 -254.81,0.95 -1476.65,-9.42 -1578.26,4.5l-176.76 1.12c-22.86,-0.16 -42.4,-4.72 -42.4,18.95l0 1140.93c0,14.12 4.26,18.39 18.39,18.39l662.53 0c143.22,0.04 262.09,-11.46 420.18,-1.96 24.85,1.47 19.04,2.03 42.48,-1.59 35.09,-5.42 53.76,3.55 89.46,3.55 32.19,0 44.01,-6.5 67.13,-5.83 21.78,0.62 35.63,5.83 67.82,5.83l2085.74 0c37.38,0 216.21,-165.08 265.69,-206.65l431.04 -366.4c16.89,-13.11 23.21,-22.15 39.29,-34.34l219.17 -179.57c27.17,-22.83 54.2,-53.62 80.01,-79.46 10.02,-10.02 30.35,-33 40.12,-39.63 24.48,-16.62 7.28,4.65 50.03,-29.71 32.15,-25.83 55.7,-46.69 87.37,-72.15 26.32,-21.18 159.22,-120.19 167.56,-151.41 -30.7,0 -37.89,-6.29 -73.4,-6.36 -214.81,-0.28 -1081.06,7.35 -1191.21,-5 -51.74,-5.83 -105.57,4.44 -156.94,-2.58 -58.61,-8.05 -398.94,-4.48 -474.02,-4.48 -110.8,0 -200.96,-6.13 -312.86,-6.13z"/>
 </g>
</svg>
